<svg width="30" height="30" viewBox="0 0 30 30" fill="none" xmlns="http://www.w3.org/2000/svg">
<g clip-path="url(#clip0_282_386)">
<path d="M0.640234 14.8205C0.639531 17.3411 1.30328 19.8022 2.56539 21.9715L0.519531 29.3834L8.16391 27.3946C10.2782 28.5367 12.6472 29.1351 15.0545 29.1353H15.0609C23.0079 29.1353 29.477 22.7186 29.4804 14.8318C29.482 11.01 27.9834 7.41631 25.2606 4.71258C22.5384 2.0091 18.9179 0.519444 15.0603 0.5177C7.11227 0.5177 0.643633 6.93398 0.640352 14.8205" fill="url(#paint0_linear_282_386)"/>
<path d="M0.125391 14.8158C0.12457 17.4271 0.812109 19.9763 2.11922 22.2233L0 29.9008L7.91848 27.8407C10.1003 29.021 12.5568 29.6434 15.0564 29.6443H15.0628C23.295 29.6443 29.9965 22.9969 30 14.8277C30.0014 10.8686 28.4489 7.1457 25.6289 4.34512C22.8086 1.54488 19.0586 0.00162791 15.0628 0C6.82922 0 0.128672 6.64651 0.125391 14.8158ZM4.84102 21.8363L4.54535 21.3706C3.30246 19.4097 2.64645 17.1436 2.64738 14.8167C2.65008 8.02663 8.2193 2.50233 15.0675 2.50233C18.3839 2.50372 21.5006 3.78651 23.8448 6.11395C26.1889 8.44163 27.4788 11.5358 27.478 14.8267C27.475 21.6169 21.9056 27.1419 15.0628 27.1419H15.0579C12.8298 27.1407 10.6446 26.547 8.73891 25.425L8.28539 25.1581L3.58641 26.3806L4.84102 21.8362V21.8363Z" fill="url(#paint1_linear_282_386)"/>
<path d="M11.3294 8.62189C11.0498 8.00526 10.7556 7.99282 10.4897 7.982C10.2719 7.9727 10.023 7.9734 9.77434 7.9734C9.52543 7.9734 9.12102 8.06631 8.77918 8.43666C8.437 8.80735 7.47278 9.70317 7.47278 11.5251C7.47278 13.3472 8.81024 15.1081 8.99668 15.3554C9.18336 15.6022 11.5787 19.4608 15.3723 20.9453C18.5251 22.1789 19.1667 21.9335 19.8509 21.8717C20.5353 21.81 22.0592 20.9761 22.3701 20.1113C22.6813 19.2467 22.6813 18.5055 22.588 18.3506C22.4947 18.1963 22.2458 18.1036 21.8725 17.9185C21.4992 17.7333 19.6643 16.8374 19.3222 16.7137C18.98 16.5903 18.7312 16.5286 18.4823 16.8994C18.2334 17.2697 17.5187 18.1036 17.3008 18.3506C17.0832 18.5982 16.8654 18.629 16.4922 18.4437C16.1188 18.2579 14.9168 17.8674 13.4907 16.6058C12.3812 15.6242 11.6321 14.412 11.4144 14.0412C11.1966 13.671 11.3911 13.4703 11.5782 13.2857C11.7459 13.1198 11.9516 12.8533 12.1384 12.6371C12.3245 12.4208 12.3866 12.2665 12.511 12.0196C12.6356 11.7724 12.5732 11.5561 12.4801 11.3708C12.3866 11.1856 11.6613 9.3541 11.3294 8.62189Z" fill="white"/>
</g>
<defs>
<linearGradient id="paint0_linear_282_386" x1="1448.56" y1="2887.09" x2="1448.56" y2="0.5177" gradientUnits="userSpaceOnUse">
<stop stop-color="#1FAF38"/>
<stop offset="1" stop-color="#60D669"/>
</linearGradient>
<linearGradient id="paint1_linear_282_386" x1="1500" y1="2990.08" x2="1500" y2="0" gradientUnits="userSpaceOnUse">
<stop stop-color="#F9F9F9"/>
<stop offset="1" stop-color="white"/>
</linearGradient>
<clipPath id="clip0_282_386">
<rect width="30" height="30" fill="white"/>
</clipPath>
</defs>
</svg>
