<svg width="15" height="15" viewBox="0 0 15 15" fill="none" xmlns="http://www.w3.org/2000/svg">
<path d="M7.50012 5.625C7.00284 5.625 6.52593 5.82254 6.1743 6.17417C5.82267 6.52581 5.62512 7.00272 5.62512 7.5C5.62512 7.99728 5.82267 8.47419 6.1743 8.82583C6.52593 9.17746 7.00284 9.375 7.50012 9.375C7.9974 9.375 8.47432 9.17746 8.82595 8.82583C9.17758 8.47419 9.37512 7.99728 9.37512 7.5C9.37512 7.00272 9.17758 6.52581 8.82595 6.17417C8.47432 5.82254 7.9974 5.625 7.50012 5.625ZM7.50012 4.375C8.32892 4.375 9.12378 4.70424 9.70983 5.29029C10.2959 5.87634 10.6251 6.6712 10.6251 7.5C10.6251 8.3288 10.2959 9.12366 9.70983 9.70971C9.12378 10.2958 8.32892 10.625 7.50012 10.625C6.67132 10.625 5.87646 10.2958 5.29041 9.70971C4.70436 9.12366 4.37512 8.3288 4.37512 7.5C4.37512 6.6712 4.70436 5.87634 5.29041 5.29029C5.87646 4.70424 6.67132 4.375 7.50012 4.375ZM11.5626 4.21875C11.5626 4.42595 11.4803 4.62466 11.3338 4.77118C11.1873 4.91769 10.9886 5 10.7814 5C10.5742 5 10.3755 4.91769 10.2289 4.77118C10.0824 4.62466 10.0001 4.42595 10.0001 4.21875C10.0001 4.01155 10.0824 3.81284 10.2289 3.66632C10.3755 3.51981 10.5742 3.4375 10.7814 3.4375C10.9886 3.4375 11.1873 3.51981 11.3338 3.66632C11.4803 3.81284 11.5626 4.01155 11.5626 4.21875ZM7.50012 2.5C5.95387 2.5 5.70137 2.50438 4.982 2.53625C4.492 2.55938 4.16325 2.625 3.85825 2.74375C3.60301 2.83746 3.37226 2.98766 3.18325 3.18313C2.98763 3.37212 2.83722 3.60286 2.74325 3.85812C2.6245 4.16437 2.55887 4.4925 2.53637 4.98188C2.50387 5.67188 2.50012 5.91313 2.50012 7.5C2.50012 9.04625 2.5045 9.29875 2.53637 10.0181C2.5595 10.5075 2.62512 10.8369 2.74325 11.1413C2.8495 11.4131 2.9745 11.6088 3.182 11.8162C3.39262 12.0262 3.58825 12.1519 3.857 12.2556C4.16575 12.375 4.4945 12.4412 4.982 12.4637C5.672 12.4962 5.91325 12.5 7.50012 12.5C9.04637 12.5 9.29887 12.4956 10.0182 12.4637C10.507 12.4406 10.8364 12.375 11.1414 12.2569C11.3962 12.1627 11.6268 12.0128 11.8164 11.8181C12.027 11.6075 12.1526 11.4119 12.2564 11.1431C12.3751 10.835 12.4414 10.5056 12.4639 10.0181C12.4964 9.32812 12.5001 9.08687 12.5001 7.5C12.5001 5.95375 12.4957 5.70125 12.4639 4.98188C12.4407 4.49313 12.3751 4.16312 12.2564 3.85812C12.1622 3.60313 12.012 3.37248 11.817 3.18313C11.6281 2.9874 11.3973 2.83698 11.142 2.74312C10.8357 2.62437 10.507 2.55875 10.0182 2.53625C9.32825 2.50375 9.087 2.5 7.50012 2.5ZM7.50012 1.25C9.19825 1.25 9.41012 1.25625 10.0764 1.2875C10.742 1.31875 11.1951 1.42313 11.5939 1.57813C12.0064 1.73688 12.3539 1.95187 12.7014 2.29875C13.0192 2.61118 13.2651 2.98912 13.422 3.40625C13.5764 3.80437 13.6814 4.25812 13.7126 4.92375C13.742 5.59 13.7501 5.80188 13.7501 7.5C13.7501 9.19812 13.7439 9.41 13.7126 10.0763C13.6814 10.7419 13.5764 11.195 13.422 11.5938C13.2655 12.0111 13.0196 12.3891 12.7014 12.7013C12.3888 13.0189 12.0109 13.2648 11.5939 13.4219C11.1957 13.5763 10.742 13.6813 10.0764 13.7125C9.41012 13.7419 9.19825 13.75 7.50012 13.75C5.802 13.75 5.59012 13.7438 4.92387 13.7125C4.25825 13.6813 3.80512 13.5763 3.40637 13.4219C2.98908 13.2653 2.61108 13.0193 2.29887 12.7013C1.981 12.3889 1.73508 12.0109 1.57825 11.5938C1.42325 11.1956 1.31887 10.7419 1.28762 10.0763C1.25825 9.41 1.25012 9.19812 1.25012 7.5C1.25012 5.80188 1.25637 5.59 1.28762 4.92375C1.31887 4.2575 1.42325 3.805 1.57825 3.40625C1.73464 2.98886 1.98062 2.61083 2.29887 2.29875C2.61117 1.98077 2.98914 1.73483 3.40637 1.57813C3.80512 1.42313 4.25762 1.31875 4.92387 1.2875C5.59012 1.25812 5.802 1.25 7.50012 1.25Z" fill="white"/>
</svg>
